<svg width="40" height="45" viewBox="0 0 40 40" fill="none" xmlns="http://www.w3.org/2000/svg">
<path d="M38.7329 17.9813L21.498 0.746379C21.2623 0.509802 20.9821 0.322091 20.6737 0.194011C20.3652 0.0659305 20.0345 0 19.7005 0C19.3665 0 19.0358 0.0659305 18.7274 0.194011C18.4189 0.322091 18.1388 0.509802 17.903 0.746379L14.3235 4.32588L18.8631 8.86545C19.3984 8.68328 19.9741 8.65514 20.5247 8.78425C21.0752 8.91335 21.5784 9.1945 21.9769 9.59566C22.3754 9.99682 22.6532 10.5019 22.7787 11.0532C22.9042 11.6046 22.8722 12.1801 22.6865 12.7142L27.0569 17.0846C27.7102 16.8602 28.4206 16.8664 29.0699 17.1022C29.7191 17.338 30.268 17.7892 30.6249 18.3805C30.9819 18.9719 31.1255 19.6677 31.0317 20.352C30.938 21.0364 30.6125 21.6679 30.1097 22.1415C29.6068 22.615 28.9568 22.9019 28.2681 22.9544C27.5793 23.0069 26.8934 22.8218 26.3245 22.4299C25.7557 22.0381 25.3383 21.4631 25.1419 20.8009C24.9456 20.1386 24.982 19.4291 25.2453 18.7905L21.1639 14.7091V25.4476C21.7822 25.7539 22.2768 26.2628 22.5655 26.8895C22.8541 27.5162 22.9193 28.2229 22.7502 28.8919C22.5811 29.5608 22.188 30.1517 21.6362 30.566C21.0844 30.9802 20.4074 31.193 19.7178 31.1688C19.0283 31.1445 18.3678 30.8848 17.8465 30.4328C17.3252 29.9807 16.9745 29.3638 16.8528 28.6846C16.7311 28.0054 16.8458 27.3051 17.1777 26.7002C17.5096 26.0953 18.0388 25.6224 18.677 25.3602V14.523C18.3078 14.3715 17.9722 14.1485 17.6895 13.8667C17.4068 13.5849 17.1827 13.25 17.03 12.8813C16.8774 12.5125 16.7992 12.1172 16.8 11.7181C16.8007 11.319 16.8805 10.924 17.0346 10.5558L12.5655 6.08391L0.747087 17.9065C0.510298 18.1423 0.322408 18.4226 0.194203 18.7311C0.0659971 19.0397 0 19.3706 0 19.7048C0 20.0389 0.0659971 20.3698 0.194203 20.6784C0.322408 20.987 0.510298 21.2672 0.747087 21.503L17.982 38.7322C18.2177 38.9688 18.4979 39.1565 18.8063 39.2846C19.1148 39.4127 19.4455 39.4786 19.7795 39.4786C20.1135 39.4786 20.4442 39.4127 20.7526 39.2846C21.0611 39.1565 21.3412 38.9688 21.577 38.7322L38.7329 21.572C38.9697 21.3363 39.1576 21.056 39.2858 20.7474C39.414 20.4389 39.48 20.108 39.48 19.7738C39.48 19.4397 39.414 19.1088 39.2858 18.8002C39.1576 18.4916 38.9697 18.2114 38.7329 17.9756" fill="#DD4C35"/>
<path d="M14.3235 4.32588L18.8631 8.86546C19.3984 8.68329 19.9741 8.65515 20.5247 8.78425C21.0752 8.91335 21.5784 9.1945 21.9769 9.59567C22.3754 9.99683 22.6532 10.5019 22.7787 11.0532C22.9042 11.6046 22.8722 12.1801 22.6865 12.7142L27.0569 17.0846C27.7102 16.8602 28.4206 16.8664 29.0699 17.1022C29.7191 17.338 30.2679 17.7892 30.6249 18.3805C30.9819 18.9719 31.1255 19.6677 31.0317 20.352C30.938 21.0364 30.6125 21.668 30.1097 22.1415C29.6068 22.615 28.9568 22.9019 28.2681 22.9544C27.5793 23.0069 26.8934 22.8218 26.3245 22.4299C25.7557 22.0381 25.3383 21.4631 25.1419 20.8009C24.9456 20.1386 24.982 19.4291 25.2453 18.7905L21.1639 14.7091V25.4476C21.7822 25.7539 22.2768 26.2628 22.5654 26.8895C22.8541 27.5163 22.9193 28.2229 22.7502 28.8919C22.5811 29.5608 22.188 30.1517 21.6362 30.566C21.0844 30.9803 20.4074 31.193 19.7178 31.1688C19.0283 31.1445 18.3678 30.8848 17.8465 30.4328C17.3252 29.9808 16.9745 29.3638 16.8528 28.6846C16.7311 28.0054 16.8457 27.3051 17.1777 26.7002C17.5096 26.0953 18.0388 25.6224 18.677 25.3602V14.523C18.3078 14.3715 17.9721 14.1485 17.6895 13.8667C17.4068 13.5849 17.1827 13.25 17.03 12.8813C16.8774 12.5125 16.7992 12.1172 16.8 11.7181C16.8007 11.319 16.8805 10.924 17.0346 10.5558L12.5655 6.08391" fill="white"/>
</svg>
