<svg width="40" height="45" viewBox="0 0 40 40" fill="none" xmlns="http://www.w3.org/2000/svg">
<path d="M0 0.5H39.48V39.98H0V0.5Z" fill="#F5DE19"/>
<path d="M26.5207 31.3437C26.8571 32.027 27.3797 32.6013 28.0283 33.0005C28.6769 33.3996 29.4251 33.6074 30.1867 33.5997C31.7236 33.5997 32.7064 32.8313 32.7064 31.7667C32.7064 30.4977 31.6968 30.0437 30.0048 29.3035L29.077 28.9059C26.398 27.7652 24.6214 26.3368 24.6214 23.3166C24.6214 20.5347 26.7364 18.4155 30.0542 18.4155C31.1282 18.3379 32.2012 18.5783 33.1395 19.1066C34.0778 19.6349 34.8398 20.4278 35.3304 21.3863L32.43 23.2405C32.2411 22.7652 31.9122 22.3586 31.4868 22.0745C31.0615 21.7905 30.5599 21.6424 30.0485 21.65C29.8254 21.6277 29.6001 21.6521 29.3869 21.7216C29.1737 21.7912 28.9774 21.9044 28.8104 22.054C28.6434 22.2036 28.5094 22.3864 28.4169 22.5907C28.3244 22.795 28.2755 23.0163 28.2733 23.2405C28.2733 24.353 28.9628 24.8042 30.5547 25.4965L31.4825 25.8941C34.6352 27.2463 36.4175 28.6239 36.4175 31.7216C36.4175 35.0619 33.7935 36.8921 30.2699 36.8921C28.897 36.9796 27.5281 36.6679 26.3284 35.9946C25.1287 35.3213 24.1495 34.3152 23.5089 33.0978L26.5207 31.3437ZM13.4147 31.6652C13.9971 32.6988 14.5272 33.573 15.8019 33.573C17.0201 33.573 17.79 33.0964 17.79 31.2422V18.627H21.4997V31.2916C21.4997 35.1324 19.2437 36.8808 15.9598 36.8808C14.799 36.9443 13.6462 36.655 12.6529 36.051C11.6596 35.447 10.8723 34.5566 10.3945 33.4968L13.4147 31.6652Z" fill="black"/>
</svg>
