<svg width="40" height="45" viewBox="0 0 40 40" fill="none" xmlns="http://www.w3.org/2000/svg">
<path d="M39.2937 16.8613C38.7522 13.2112 37.2021 9.78482 34.8181 6.96824C32.434 4.15167 29.3108 2.05684 25.8003 0.919786C24.4633 0.495246 23.0869 0.207202 21.6919 0.0600618C21.3212 0.0220084 18.7717 -0.0202732 18.4503 0.0107332C18.3658 0.0107332 18.0952 0.0445586 17.8527 0.06429C15.0425 0.336298 12.3231 1.20679 9.87724 2.61725C7.43142 4.02771 5.31591 5.94545 3.67292 8.24154C1.83504 10.7925 0.640317 13.7496 0.190332 16.8613C0.0387386 17.8099 -0.0221399 18.7707 0.00852129 19.7308C-0.0237554 20.6922 0.0357077 21.6545 0.186104 22.6046C0.726653 26.2554 2.27636 29.6826 4.6605 32.4998C7.04464 35.317 10.1684 37.4121 13.6795 38.5489C15.0351 38.9784 16.4311 39.2679 17.8457 39.4129C19.1048 39.4791 20.3665 39.4791 21.6257 39.4129C24.1049 39.1705 26.5167 38.4653 28.736 37.334C29.0743 37.1607 29.1405 37.1142 29.094 37.0761C29.0475 37.0381 27.617 35.1129 25.8806 32.7676L22.725 28.5057L18.7787 22.6539C16.6026 19.4377 14.8127 16.8078 14.7972 16.8078C14.7817 16.8078 14.7662 19.4025 14.7591 22.5778C14.8598 24.5507 14.8315 26.528 14.6746 28.4972C14.6068 28.6509 14.4863 28.7754 14.3349 28.8481C14.2109 28.9102 14.1024 28.9214 13.5203 28.9214H12.8537L12.6761 28.8101C12.566 28.7409 12.4765 28.6436 12.4167 28.5282L12.3364 28.3549L12.3435 20.6216L12.3561 12.8841L12.4745 12.7332C12.5544 12.6393 12.6497 12.5597 12.7564 12.4979C12.9143 12.4218 12.9763 12.4133 13.6429 12.4133C14.4308 12.4133 14.5618 12.4443 14.7704 12.6684C14.8282 12.7304 16.9691 15.9537 19.5299 19.838C22.0908 23.7222 25.5903 29.0257 27.3153 31.6289L30.4371 36.3616L30.595 36.2573C32.0995 35.2569 33.4632 34.0596 34.6498 32.6972C37.1358 29.8521 38.7483 26.3502 39.2937 22.6116C39.4445 21.6592 39.504 20.6946 39.4713 19.7308C39.5033 18.7709 39.4439 17.81 39.2937 16.8613ZM26.9461 19.4757L26.9348 26.4113L25.7115 24.5368L24.4853 22.6624V17.6168C24.4853 14.3583 24.5008 12.5261 24.5233 12.4373C24.5509 12.3346 24.5989 12.2386 24.6645 12.155C24.7302 12.0715 24.8121 12.0021 24.9053 11.951C25.0631 11.8693 25.1209 11.8622 25.727 11.8622C26.2907 11.8622 26.3978 11.8693 26.5247 11.9398C26.6169 11.9856 26.699 12.0496 26.766 12.1278C26.8331 12.206 26.8838 12.2968 26.9151 12.395C26.9461 12.4993 26.9531 14.643 26.9461 19.4757Z" fill="white"/>
</svg>
