<svg width="40" height="45" viewBox="0 0 40 45" fill="none" xmlns="http://www.w3.org/2000/svg">
<path d="M19.74 44.5197C19.1394 44.5199 18.5493 44.362 18.0292 44.0618L12.585 40.8388C11.7725 40.3841 12.1684 40.2235 12.4371 40.1297C13.3012 39.8627 14.1286 39.4888 14.9 39.0167C14.9646 38.9868 15.0357 38.9739 15.1067 38.9792C15.1776 38.9845 15.246 39.0078 15.3055 39.0469L19.4888 41.5321C19.5667 41.5733 19.6535 41.5948 19.7416 41.5948C19.8297 41.5948 19.9165 41.5733 19.9944 41.5321L36.3079 32.116C36.3843 32.0703 36.4474 32.0055 36.4912 31.928C36.5349 31.8505 36.5578 31.763 36.5576 31.674V12.8387C36.5576 12.7483 36.5344 12.6594 36.4901 12.5806C36.4458 12.5018 36.382 12.4357 36.3047 12.3888L19.9912 2.98065C19.9143 2.93733 19.8275 2.91457 19.7392 2.91457C19.6509 2.91457 19.5641 2.93733 19.4872 2.98065L3.18321 12.3919C3.10544 12.4379 3.04087 12.5032 2.99574 12.5815C2.95062 12.6598 2.92647 12.7484 2.92563 12.8387V31.6661C2.92586 31.7548 2.94968 31.842 2.99466 31.9185C3.03964 31.9951 3.10417 32.0583 3.18162 32.1017L7.65592 34.6839C10.0807 35.8955 11.5658 34.4677 11.5658 33.0335V14.4446C11.5658 14.382 11.5781 14.32 11.6021 14.2621C11.626 14.2042 11.6612 14.1516 11.7055 14.1073C11.7498 14.063 11.8023 14.0279 11.8602 14.0039C11.9181 13.98 11.9801 13.9676 12.0428 13.9676H14.1098C14.2363 13.9676 14.3576 14.0179 14.4471 14.1073C14.5365 14.1968 14.5868 14.3181 14.5868 14.4446V33.0351C14.5868 36.2707 12.825 38.1231 9.75632 38.1231C8.43244 38.1462 7.12932 37.7921 5.99912 37.1023L1.71086 34.6426C1.19027 34.3394 0.758315 33.905 0.458106 33.3827C0.157897 32.8604 -5.76324e-05 32.2685 1.13079e-05 31.6661V12.8387C-0.00153607 12.2354 0.15575 11.6422 0.456064 11.1189C0.756379 10.5956 1.18914 10.1605 1.71086 9.85745L18.026 0.438225C18.5515 0.150699 19.1409 0 19.74 0C20.3391 0 20.9285 0.150699 21.454 0.438225L37.7676 9.85745C38.2881 10.16 38.7201 10.5938 39.0206 11.1155C39.3211 11.6373 39.4795 12.2287 39.48 12.8308V31.6661C39.4791 32.2685 39.3206 32.8602 39.0202 33.3823C38.7197 33.9045 38.2879 34.339 37.7676 34.6426L21.454 44.0618C20.9329 44.3625 20.3417 44.5204 19.74 44.5197Z" fill="#83CD29"/>
<path d="M16.6458 25.3648C16.6458 25.2383 16.6961 25.117 16.7856 25.0276C16.875 24.9381 16.9963 24.8878 17.1228 24.8878H19.2328C19.3455 24.8882 19.4545 24.9285 19.5404 25.0015C19.6262 25.0746 19.6834 25.1757 19.7018 25.2869C20.0198 27.435 20.9739 28.5178 25.2876 28.5178C28.7236 28.5178 30.188 27.7403 30.188 25.9166C30.188 24.8656 29.773 24.0849 24.4321 23.5618C19.9674 23.1197 17.2071 22.1308 17.2071 18.5628C17.2071 15.2714 19.9817 13.3078 24.6325 13.3078C29.8588 13.3078 32.4458 15.122 32.7733 19.0143C32.7783 19.0793 32.77 19.1446 32.7487 19.2063C32.7275 19.2679 32.6939 19.3245 32.65 19.3726C32.606 19.4208 32.5526 19.4594 32.4932 19.4861C32.4337 19.5128 32.3694 19.527 32.3043 19.5279H30.18C30.0735 19.5264 29.9705 19.4893 29.8875 19.4224C29.8045 19.3556 29.7462 19.2628 29.7221 19.159C29.2149 16.8996 27.9731 16.1778 24.6341 16.1778C20.8816 16.1778 20.446 17.4847 20.446 18.4642C20.446 19.6503 20.9611 19.997 26.0269 20.6664C31.0402 21.3294 33.4221 22.2675 33.4221 25.791C33.4221 29.3462 30.4583 31.3814 25.2891 31.3814C18.142 31.391 16.6458 28.114 16.6458 25.3648Z" fill="#83CD29"/>
</svg>
