<svg width="40" height="45" viewBox="0 0 40 36" fill="none" xmlns="http://www.w3.org/2000/svg">
<path d="M19.74 21.0548C21.6868 21.0548 23.265 19.4766 23.265 17.5298C23.265 15.583 21.6868 14.0048 19.74 14.0048C17.7932 14.0048 16.215 15.583 16.215 17.5298C16.215 19.4766 17.7932 21.0548 19.74 21.0548Z" fill="#00D8FF"/>
<path d="M19.74 25.6119C15.5031 25.7144 11.2769 25.1433 7.2192 23.9199C5.34478 23.3257 3.59654 22.3897 2.06283 21.1591C1.47758 20.7387 0.990203 20.1967 0.634136 19.5703C0.27807 18.9438 0.0617434 18.2477 0 17.5298C0 15.1991 2.56056 12.9149 6.84978 11.4203C11.016 10.0959 15.3689 9.45407 19.74 9.51958C24.0528 9.45933 28.3474 10.0896 32.461 11.3864C34.2662 11.9619 35.9552 12.8527 37.4496 14.0175C38.0248 14.4183 38.5049 14.9406 38.8558 15.5476C39.2067 16.1546 39.4198 16.8313 39.48 17.5298C39.48 19.9522 36.6177 22.407 32.007 23.9326C28.0279 25.1161 23.8908 25.6825 19.74 25.6119ZM19.74 11.2059C15.5581 11.15 11.394 11.7602 7.40391 13.0136C3.45591 14.3911 1.68636 16.2749 1.68636 17.5256C1.68636 18.834 3.58845 20.8912 7.76487 22.3196C11.6467 23.484 15.6885 24.0261 19.74 23.9256C23.7111 23.9966 27.6697 23.4592 31.4783 22.3323C35.814 20.8955 37.788 18.8355 37.788 17.5298C37.7169 17.0817 37.5536 16.6533 37.3085 16.2715C37.0633 15.8898 36.7417 15.563 36.3639 15.3119C35.0269 14.2785 33.5181 13.4891 31.9069 12.9797C27.9716 11.7442 23.8642 11.1454 19.74 11.2059Z" fill="#00D8FF"/>
<path d="M11.7312 35.1111C11.0734 35.1262 10.4234 34.9666 9.84744 34.6486C7.82832 33.4839 7.12896 30.1253 7.97637 25.6627C8.9107 21.3919 10.5296 17.3004 12.7704 13.5465C14.8723 9.78057 17.5632 6.37515 20.7411 3.45939C22.1415 2.18293 23.7569 1.16468 25.5125 0.451862C26.1475 0.154266 26.8402 0 27.5415 0C28.2428 0 28.9355 0.154266 29.5705 0.451862C31.67 1.66164 32.3651 5.36712 31.3852 10.1231C30.422 14.1621 28.8452 18.0295 26.7096 21.5906C24.6817 25.3121 22.0755 28.6878 18.9885 31.5917C17.5373 32.9182 15.8531 33.9647 14.021 34.6782C13.2876 34.9504 12.5134 35.0968 11.7312 35.1111ZM14.2311 14.3841C12.0937 17.9786 10.5421 21.8905 9.63453 25.9729C8.8548 30.083 9.60351 32.5547 10.692 33.1836C11.82 33.8364 14.5582 33.2174 17.883 30.3128C20.83 27.5308 23.3175 24.2995 25.2531 20.7389C27.2989 17.3345 28.8115 13.637 29.7383 9.77478C30.6604 5.29803 29.8638 2.55699 28.733 1.90557C28.3091 1.74318 27.8562 1.67048 27.4029 1.69208C26.9495 1.71368 26.5056 1.82911 26.0991 2.03106C24.5364 2.67592 23.0996 3.59141 21.855 4.73544C18.8188 7.52835 16.2484 10.7885 14.241 14.3925L14.2311 14.3841Z" fill="#00D8FF"/>
<path d="M27.7446 35.1294C25.834 35.1294 23.4074 33.9732 20.8807 31.8004C17.6471 28.8581 14.9107 25.4122 12.7774 21.5962C10.5648 17.8941 8.95867 13.8617 8.02008 9.65212C7.61302 7.80007 7.5376 5.89051 7.7973 4.01212C7.85734 3.31531 8.06952 2.64015 8.41887 2.03426C8.76823 1.42837 9.24625 0.906499 9.81924 0.505449C11.9159 -0.708561 15.4733 0.539289 19.1041 3.76255C22.1223 6.61383 24.6854 9.91114 26.704 13.5395C28.9153 17.1552 30.5382 21.0992 31.5121 25.2242C31.9367 27.1442 32.0022 29.1262 31.7053 31.07C31.6346 31.7869 31.4098 32.48 31.0462 33.1018C30.6826 33.7236 30.1888 34.2595 29.5987 34.6726C29.0321 34.9866 28.3922 35.1443 27.7446 35.1294ZM14.2368 20.7474C16.2833 24.3943 18.8972 27.6922 21.9805 30.5173C25.1516 33.2456 27.667 33.8322 28.7485 33.1963C29.8765 32.5406 30.7084 29.8645 29.8511 25.5344C28.9119 21.5961 27.3552 17.8314 25.239 14.3798C23.3127 10.9072 20.8662 7.74983 17.9845 5.01745C14.5667 1.98313 11.7946 1.30492 10.6652 1.95916C10.3132 2.24522 10.0243 2.60117 9.81685 3.00451C9.60935 3.40786 9.48774 3.84985 9.45969 4.30258C9.23551 5.97778 9.30854 7.67939 9.67542 9.32923C10.5782 13.355 12.1186 17.2106 14.2382 20.7502L14.2368 20.7474Z" fill="#00D8FF"/>
</svg>
