<svg width="40" height="45" viewBox="0 0 40 24" fill="none" xmlns="http://www.w3.org/2000/svg">
<path d="M9.87 7.896C11.186 2.632 14.476 0 19.74 0C27.636 0 28.623 5.922 32.571 6.909C35.203 7.567 37.506 6.58 39.48 3.948C38.164 9.212 34.874 11.844 29.61 11.844C21.714 11.844 20.727 5.922 16.779 4.935C14.147 4.277 11.844 5.264 9.87 7.896ZM0 19.74C1.316 14.476 4.606 11.844 9.87 11.844C17.766 11.844 18.753 17.766 22.701 18.753C25.333 19.411 27.636 18.424 29.61 15.792C28.294 21.056 25.004 23.688 19.74 23.688C11.844 23.688 10.857 17.766 6.909 16.779C4.277 16.121 1.974 17.108 0 19.74Z" fill="#44A8B3"/>
</svg>
